<svg width="80" height="80" viewBox="0 0 80 80" fill="none" xmlns="http://www.w3.org/2000/svg">
<path fill-rule="evenodd" clip-rule="evenodd" d="M49.8833 47.5166H52.5166L69.15 64.1833L64.1833 69.15L47.5166 52.5166V49.8833L46.6166 48.95C42.8166 52.2166 37.8833 54.1833 32.5166 54.1833C20.55 54.1833 10.85 44.4833 10.85 32.5166C10.85 20.55 20.55 10.85 32.5166 10.85C44.4833 10.85 54.1833 20.55 54.1833 32.5166C54.1833 37.8833 52.2166 42.8166 48.95 46.6166L49.8833 47.5166ZM17.5166 32.5166C17.5166 40.8166 24.2166 47.5166 32.5166 47.5166C40.8166 47.5166 47.5166 40.8166 47.5166 32.5166C47.5166 24.2166 40.8166 17.5166 32.5166 17.5166C24.2166 17.5166 17.5166 24.2166 17.5166 32.5166Z" fill="black" fill-opacity="0.54"/>
</svg>
